<svg width="1600" height="900" viewBox="0 0 1600 900" fill="none" xmlns="http://www.w3.org/2000/svg">
  <rect width="1600" height="900" fill="#090909"/>
  <rect x="64" y="64" width="1472" height="772" rx="28" fill="#101010" stroke="#2B2B2B" stroke-width="2"/>
  <rect x="104" y="104" width="340" height="692" rx="24" fill="#141414" stroke="#303030"/>
  <rect x="492" y="104" width="944" height="692" rx="24" fill="#141414" stroke="#303030"/>
  <rect x="148" y="148" width="252" height="252" rx="18" fill="url(#paint0_linear)"/>
  <rect x="148" y="430" width="180" height="20" rx="10" fill="#F4F4F4"/>
  <rect x="148" y="466" width="220" height="16" rx="8" fill="#5B5B5B"/>
  <rect x="148" y="544" width="80" height="80" rx="40" fill="#F4F4F4"/>
  <rect x="248" y="568" width="120" height="14" rx="7" fill="#666666"/>
  <rect x="536" y="148" width="160" height="18" rx="9" fill="#EDEDED"/>
  <rect x="536" y="236" width="640" height="30" rx="15" fill="#3A3A3A"/>
  <rect x="536" y="292" width="720" height="30" rx="15" fill="#5C5C5C"/>
  <rect x="536" y="348" width="612" height="34" rx="17" fill="#F4F4F4"/>
  <rect x="536" y="408" width="760" height="34" rx="17" fill="#F4F4F4"/>
  <rect x="536" y="468" width="688" height="30" rx="15" fill="#5C5C5C"/>
  <rect x="536" y="524" width="600" height="30" rx="15" fill="#3A3A3A"/>
  <rect x="536" y="580" width="732" height="30" rx="15" fill="#5C5C5C"/>
  <rect x="536" y="636" width="540" height="30" rx="15" fill="#3A3A3A"/>
  <text x="104" y="860" fill="#7A7A7A" font-family="Arial, Helvetica, sans-serif" font-size="24">SIDE A • LYRICS SCREEN PLACEHOLDER</text>
  <defs>
    <linearGradient id="paint0_linear" x1="148" y1="148" x2="400" y2="400" gradientUnits="userSpaceOnUse">
      <stop stop-color="#262626"/>
      <stop offset="1" stop-color="#121212"/>
    </linearGradient>
  </defs>
</svg>
